<?xml version="1.0" encoding="utf-8"?>
<!DOCTYPE svg PUBLIC "-//W3C//DTD SVG 1.0//EN" "http://www.w3.org/TR/2001/REC-SVG-20010904/DTD/svg10.dtd">
<svg version="1.0" xmlns="http://www.w3.org/2000/svg" width="400px" height="211px" viewBox="0 0 400 211" preserveAspectRatio="xMidYMid meet">
 <g fill="#08192d">
  <path d="M65 209.9 c-10.3 -2 -20.2 -9.4 -24.8 -18.6 -7.1 -13.8 -3.6 -32.3 7.9 -42.7 7.2 -6.5 14.2 -8.9 25.4 -8.8 5 0 10.4 0.4 12 0.9 l3 0.9 0.3 8.7 c0.1 4.8 0 8.7 -0.3 8.7 -0.3 0 -3.2 -0.7 -6.4 -1.6 -14.5 -4.1 -27.1 4.1 -27.1 17.6 0 7.3 3.4 12.9 10 16.3 6.8 3.4 10.8 3.5 21.8 0.1 2.3 -0.7 2.3 -0.6 2 8.2 l-0.3 8.9 -5.5 1.2 c-6.5 1.3 -11.9 1.4 -18 0.2z"/>
  <path d="M164.5 210.3 c-1.6 -0.2 -4.5 -0.6 -6.2 -0.9 l-3.3 -0.5 0 -7.6 0 -7.5 2.8 0.6 c1.5 0.4 6.3 0.9 10.7 1.2 6.5 0.4 8.6 0.2 11.5 -1.3 6.7 -3.5 4.1 -10 -5.1 -12.7 -9.1 -2.7 -15.6 -7.2 -18.5 -12.8 -3.1 -5.9 -0.8 -18.6 4.2 -23 2.8 -2.4 10.1 -5.5 15.2 -6.3 2.4 -0.4 8.1 -0.2 12.7 0.5 l8.5 1.2 0 7.3 0 7.4 -3.2 -1 c-4.4 -1.2 -15.5 -1.2 -17.8 0.1 -1.1 0.6 -2.4 2 -3 3.1 -1.8 3.3 0.9 6.3 7.7 8.4 11.4 3.5 16.7 7.5 19.7 14.7 2.9 6.8 1.5 14.6 -3.6 20.4 -6.5 7.3 -18 10.5 -32.3 8.7z"/>
  <path d="M248 209.9 c-16.7 -3.3 -28.3 -17.5 -28.3 -34.9 0 -23.5 20.7 -39.6 44.8 -34.9 l7 1.4 0.3 8.9 c0.3 8.8 0.3 8.9 -2 8.2 -10.8 -3.3 -16.6 -3.1 -23.4 0.9 -11.1 6.5 -11.1 24.5 0 31 6.8 4 12.6 4.2 23.4 0.9 2.3 -0.7 2.3 -0.6 2 8.2 l-0.3 8.9 -5.5 1.2 c-6.5 1.3 -11.9 1.4 -18 0.2z"/>
  <path d="M318.5 209.6 c-7.5 -1.9 -12.5 -4.9 -17.8 -10.5 -7.2 -7.7 -9.1 -12.7 -9.1 -24.1 0 -8.4 0.3 -10.2 2.7 -15.1 3.6 -7.5 11.6 -15 19.2 -17.9 12.8 -5 28.5 -2.3 38.2 6.5 15.9 14.2 15.9 38.8 0 53 -8.3 7.5 -22.3 11 -33.2 8.1z m17.6 -18.2 c3.7 -1.9 7.6 -6.8 8.9 -11.2 1.2 -4.6 1.2 -5.8 -0.1 -10.5 -3 -10.8 -15.8 -16.2 -26 -11.1 -4 2 -8.7 8 -9.5 11.9 -3 16.1 12.4 28.1 26.7 20.9z"/>
  <path d="M113 175.5 l0 -34.5 8.5 0 8.5 0 0 34.5 0 34.5 -8.5 0 -8.5 0 0 -34.5z"/>
  <path d="M101.3 108.5 c-1.7 -0.7 -3.6 -2.2 -4.2 -3.4 -0.8 -1.3 -1.1 -17.6 -1.1 -50.3 0 -52.8 -0.1 -51.5 5.8 -53.6 3.8 -1.3 8.9 0.8 10.2 4.3 1.6 4.1 1.3 96.3 -0.3 99.4 -1.8 3.7 -6.4 5.2 -10.4 3.6z"/>
  <path d="M292.5 108.6 c-5.5 -2.4 -5.5 -2.7 -5.5 -53.7 0 -51.5 0.1 -52.1 5.8 -53.6 4.1 -1.1 6.5 -0.5 9 2.3 l2.2 2.5 0 48.9 0 48.9 -2.2 2.5 c-3 3.2 -5.6 3.8 -9.3 2.2z"/>
  <path d="M2.9 89.4 c-2.3 -2.4 -2.4 -3.2 -2.4 -15 0 -11 0.2 -12.6 2 -14.3 3.4 -3.5 7.7 -3.7 11.3 -0.6 l3.2 2.7 0 12.4 c0 11.9 -0.1 12.6 -2.5 14.9 -3.3 3.4 -8.3 3.4 -11.6 -0.1z"/>
  <path d="M50.6 88.9 l-2.6 -3.1 0 -23.3 c0 -22.8 0.1 -23.4 2.3 -25.9 1.2 -1.5 3.6 -2.9 5.4 -3.2 2.7 -0.5 3.7 -0.1 6.3 2.4 l3 3 0 24.2 0 24.1 -2.5 2.4 c-3.6 3.7 -8.6 3.4 -11.9 -0.6z"/>
  <path d="M146.5 89.5 l-2.5 -2.4 0 -24.5 0 -24.4 3.2 -2.7 c3.6 -3.1 7.9 -2.9 11.3 0.6 1.9 1.8 2 3.5 2.3 25.8 l0.3 23.8 -2.6 3.2 c-3.4 4 -8.4 4.3 -12 0.6z"/>
  <path d="M194.5 89.5 c-2.4 -2.3 -2.5 -3 -2.5 -15 0 -11.1 0.2 -12.7 2 -14.5 2.8 -2.8 6.3 -3.4 9.9 -1.6 4.1 2.2 5.4 6.9 5 19 -0.4 9.3 -0.5 9.9 -3.2 12.2 -3.7 3.1 -8.1 3.1 -11.2 -0.1z"/>
  <path d="M242.3 89.6 l-2.8 -2.4 -0.3 -21.9 c-0.4 -24.8 0.2 -28.4 4.9 -30.9 3.7 -1.8 7 -1.2 9.9 1.8 1.9 2.1 2 3.4 2 26.5 l0 24.4 -2.5 2.4 c-3.1 3.2 -7.5 3.2 -11.2 0.1z"/>
  <path d="M338.9 90.7 c-3.6 -2.7 -3.9 -5.3 -3.9 -28.6 0 -22.4 0.1 -23.1 2.3 -25.5 1.2 -1.5 3.6 -2.9 5.4 -3.2 2.7 -0.5 3.7 -0.1 6.3 2.4 l3 3 0 24 0 23.9 -2.5 2.7 c-2.6 2.8 -7.7 3.5 -10.6 1.3z"/>
  <path d="M385.5 89.5 c-2.4 -2.3 -2.5 -3 -2.5 -14.5 l0 -12.2 3 -3 c2.6 -2.5 3.6 -2.9 6.3 -2.4 1.8 0.3 4.2 1.7 5.5 3.2 2 2.3 2.2 3.5 2.2 13.9 0 10.7 -0.1 11.5 -2.6 14.4 -3.3 4 -8.3 4.3 -11.9 0.6z"/>
 </g>
</svg>